<svg width="42" height="42" viewBox="0 0 42 42" fill="none" xmlns="http://www.w3.org/2000/svg">
<path d="M20.7666 0.756348L37.9541 6.77197V20.6251C37.9541 27.7184 33.6005 32.677 29.5391 35.7553C27.0892 37.5968 24.4006 39.0973 21.5469 40.2154L21.3974 40.2721L21.3544 40.2876L21.3424 40.291L21.3372 40.2928C21.3355 40.2928 21.3338 40.2928 20.7666 38.672L20.1977 40.2945L20.1908 40.291L20.1788 40.2876L20.1358 40.2704L19.9863 40.2154C19.1757 39.9019 18.3786 39.5544 17.5972 39.1738C15.6248 38.2156 13.7485 37.0709 11.9941 35.7553C7.93441 32.677 3.5791 27.7184 3.5791 20.6251V6.77197L20.7666 0.756348ZM20.7666 38.672L20.1977 40.2945L20.7666 40.4938L21.3355 40.2945L20.7666 38.672ZM20.7666 36.8295L20.7821 36.8226C23.1602 35.8396 25.4049 34.5605 27.4629 33.0156C31.1375 30.2329 34.5166 26.1646 34.5166 20.6251V9.2126L20.7666 4.4001L7.0166 9.2126V20.6251C7.0166 26.1646 10.3957 30.2295 14.0704 33.0173C16.1329 34.5651 18.3828 35.846 20.7666 36.8295ZM31.2029 14.3396L19.0496 26.4929L11.7569 19.202L14.1889 16.7699L19.0479 21.6323L28.7708 11.9093L31.2029 14.3396Z" fill="#067F34"/>
</svg>
